<svg xmlns="http://www.w3.org/2000/svg" xmlns:svg="http://www.w3.org/2000/svg" xmlns:xlink="http://www.w3.org/1999/xlink" id="svg3775" width="223.228" height="311.811" version="1.1"><defs id="defs3777"><pattern id="pattern4529" patternTransform="matrix(0.70710678,-0.70710678,0.70710678,0.70710678,127.76526,536.84923)" xlink:href="#pattern3800"/><pattern id="pattern13545-1" patternTransform="matrix(-0.11059956,0.11059956,-0.11059956,-0.11059956,-254.02376,74.426221)" xlink:href="#pattern13024-5"/><pattern id="pattern13024-5" width="108.618" height="110.741" patternTransform="translate(-254.02376,74.426221)" patternUnits="userSpaceOnUse"><path style="fill:#131f67;fill-opacity:1;stroke:none" id="path13016-2" d="m -1016.046,25.720671 -10.7642,16.120541 7.1773,18.006272 -18.6578,-5.255841 -14.9071,12.390288 -0.767,-19.36883 -16.3904,-10.348653 18.1838,-6.714754 4.7773,-18.786107 12.0052,15.218884 z" transform="translate(1070.3552,-11.763587)"/><path id="path13018-7" d="m -1016.046,25.720671 -10.7642,16.120541 7.1773,18.006272 -18.6578,-5.255841 -14.9071,12.390288 -0.767,-19.36883 -16.3904,-10.348653 18.1838,-6.714754 4.7773,-18.786107 12.0052,15.218884 z" transform="matrix(0.8660254,0.5,-0.5,0.8660254,946.33909,568.72784)" style="fill:#131f67;fill-opacity:1;stroke:none"/><path style="fill:#131f67;fill-opacity:1;stroke:none" id="path13020-6" d="m -1016.046,25.720671 -10.7642,16.120541 7.1773,18.006272 -18.6578,-5.255841 -14.9071,12.390288 -0.767,-19.36883 -16.3904,-10.348653 18.1838,-6.714754 4.7773,-18.786107 12.0052,15.218884 z" transform="translate(1124.6644,-11.763587)"/><path id="path13022-1" d="m -1016.046,25.720671 -10.7642,16.120541 7.1773,18.006272 -18.6578,-5.255841 -14.9071,12.390288 -0.767,-19.36883 -16.3904,-10.348653 18.1838,-6.714754 4.7773,-18.786107 12.0052,15.218884 z" transform="matrix(0.8660254,0.5,-0.5,0.8660254,1000.6483,568.72784)" style="fill:#131f67;fill-opacity:1;stroke:none"/></pattern><pattern id="pattern15142" patternTransform="matrix(0.10623121,-0.1062312,0.10623121,0.1062312,-605.82881,365.81179)" xlink:href="#pattern13074-4"/><pattern id="pattern13074-4" patternTransform="matrix(0.10623121,-0.1062312,0.10623121,0.1062312,-605.82881,365.81179)" xlink:href="#pattern13064-2"/><pattern id="pattern13064-2" patternTransform="matrix(0.10623121,-0.1062312,0.10623121,0.1062312,-836.82881,38.811786)" xlink:href="#pattern8526-950-188-3"/><pattern id="pattern8526-950-188-3" patternTransform="matrix(0.10623121,-0.1062312,0.10623121,0.1062312,13.113538,22.901883)" xlink:href="#pattern8519-687-26-2"/><pattern id="pattern8519-687-26-2" patternTransform="matrix(0.10623121,-0.1062312,0.10623121,0.1062312,-23.656015,100.68363)" xlink:href="#pattern8507-266-27-2"/><pattern id="pattern8507-266-27-2" patternTransform="matrix(0.10623119,-0.10623119,0.10623119,0.10623119,194.54709,-74.729113)" xlink:href="#pattern8501-248-271-1"/><pattern id="pattern8501-248-271-1" patternTransform="matrix(0.0652057,-0.0652057,0.0652057,0.0652057,194.54709,-74.729113)" xlink:href="#pattern8475-545-163-6"/><pattern id="pattern8475-545-163-6" patternTransform="matrix(0.11006325,-0.11006325,0.11006325,0.11006325,-254.02376,74.426221)" xlink:href="#pattern8463-7-486-8"/><pattern id="pattern8463-7-486-8" width="108.618" height="110.741" patternTransform="translate(-254.02376,74.426221)" patternUnits="userSpaceOnUse"><path style="fill:#d40000;fill-opacity:1;stroke:none" id="path11396-5" d="m -1016.046,25.720671 -10.7642,16.120541 7.1773,18.006272 -18.6578,-5.255841 -14.9071,12.390288 -0.767,-19.36883 -16.3904,-10.348653 18.1838,-6.714754 4.7773,-18.786107 12.0052,15.218884 z" transform="translate(1070.3552,-11.763587)"/><path id="path11398-7" d="m -1016.046,25.720671 -10.7642,16.120541 7.1773,18.006272 -18.6578,-5.255841 -14.9071,12.390288 -0.767,-19.36883 -16.3904,-10.348653 18.1838,-6.714754 4.7773,-18.786107 12.0052,15.218884 z" transform="matrix(0.8660254,0.5,-0.5,0.8660254,946.33909,568.72784)" style="fill:#d40000;fill-opacity:1;stroke:none"/><path style="fill:#d40000;fill-opacity:1;stroke:none" id="path11400-6" d="m -1016.046,25.720671 -10.7642,16.120541 7.1773,18.006272 -18.6578,-5.255841 -14.9071,12.390288 -0.767,-19.36883 -16.3904,-10.348653 18.1838,-6.714754 4.7773,-18.786107 12.0052,15.218884 z" transform="translate(1124.6644,-11.763587)"/><path id="path11402-1" d="m -1016.046,25.720671 -10.7642,16.120541 7.1773,18.006272 -18.6578,-5.255841 -14.9071,12.390288 -0.767,-19.36883 -16.3904,-10.348653 18.1838,-6.714754 4.7773,-18.786107 12.0052,15.218884 z" transform="matrix(0.8660254,0.5,-0.5,0.8660254,1000.6483,568.72784)" style="fill:#d40000;fill-opacity:1;stroke:none"/></pattern><pattern id="pattern8463-7-486-8-2" width="108.618" height="110.741" patternTransform="translate(-254.02376,74.426221)" patternUnits="userSpaceOnUse"><path style="fill:#d40000;fill-opacity:1;stroke:none" id="path11396-5-4" d="m -1016.046,25.720671 -10.7642,16.120541 7.1773,18.006272 -18.6578,-5.255841 -14.9071,12.390288 -0.767,-19.36883 -16.3904,-10.348653 18.1838,-6.714754 4.7773,-18.786107 12.0052,15.218884 z" transform="translate(1070.3552,-11.763587)"/><path id="path11398-7-5" d="m -1016.046,25.720671 -10.7642,16.120541 7.1773,18.006272 -18.6578,-5.255841 -14.9071,12.390288 -0.767,-19.36883 -16.3904,-10.348653 18.1838,-6.714754 4.7773,-18.786107 12.0052,15.218884 z" transform="matrix(0.8660254,0.5,-0.5,0.8660254,946.33909,568.72784)" style="fill:#d40000;fill-opacity:1;stroke:none"/><path style="fill:#d40000;fill-opacity:1;stroke:none" id="path11400-6-5" d="m -1016.046,25.720671 -10.7642,16.120541 7.1773,18.006272 -18.6578,-5.255841 -14.9071,12.390288 -0.767,-19.36883 -16.3904,-10.348653 18.1838,-6.714754 4.7773,-18.786107 12.0052,15.218884 z" transform="translate(1124.6644,-11.763587)"/><path id="path11402-1-1" d="m -1016.046,25.720671 -10.7642,16.120541 7.1773,18.006272 -18.6578,-5.255841 -14.9071,12.390288 -0.767,-19.36883 -16.3904,-10.348653 18.1838,-6.714754 4.7773,-18.786107 12.0052,15.218884 z" transform="matrix(0.8660254,0.5,-0.5,0.8660254,1000.6483,568.72784)" style="fill:#d40000;fill-opacity:1;stroke:none"/></pattern><pattern id="pattern3800" width="16.772" height="17.116" patternTransform="translate(127.76526,536.84923)" patternUnits="userSpaceOnUse"><g id="g3794" transform="translate(-127.76526,-536.84923)"><path id="path3018" d="m 139.93132,538.16935 -1.53091,4.51447 2.85103,3.82044 -4.7666,-0.0609 -2.75244,3.89206 -1.41502,-4.55212 -4.55212,-1.41502 3.89206,-2.75244 -0.0609,-4.76659 3.82044,2.85102 z" transform="matrix(0.62548599,0,0,0.62548599,47.849879,201.05756)" style="fill:#d40000;fill-opacity:1;stroke:none"/><path style="fill:#d40000;fill-opacity:1;stroke:none" id="path3788" d="m 139.93132,538.16935 -1.53091,4.51447 2.85103,3.82044 -4.7666,-0.0609 -2.75244,3.89206 -1.41502,-4.55212 -4.55212,-1.41502 3.89206,-2.75244 -0.0609,-4.76659 3.82044,2.85102 z" transform="matrix(0.312743,0.54168676,-0.54168676,0.312743,392.29373,297.90436)"/><path style="fill:#d40000;fill-opacity:1;stroke:none" id="path3790" d="m 139.93132,538.16935 -1.53091,4.51447 2.85103,3.82044 -4.7666,-0.0609 -2.75244,3.89206 -1.41502,-4.55212 -4.55212,-1.41502 3.89206,-2.75244 -0.0609,-4.76659 3.82044,2.85102 z" transform="matrix(0.62548599,0,0,-0.62548599,47.849879,889.7568)"/><path id="path3792" d="m 139.93132,538.16935 -1.53091,4.51447 2.85103,3.82044 -4.7666,-0.0609 -2.75244,3.89206 -1.41502,-4.55212 -4.55212,-1.41502 3.89206,-2.75244 -0.0609,-4.76659 3.82044,2.85102 z" transform="matrix(0.312743,-0.54168676,-0.54168676,-0.312743,392.29373,792.91)" style="fill:#d40000;fill-opacity:1;stroke:none"/></g></pattern></defs><metadata id="metadata3780"/><g id="layer1" transform="translate(-260.43307,-370.27557)"><g id="g15148" transform="translate(811.37551,-119.72681)" style="display:inline"><rect id="rect13068" width="222.228" height="310.811" x="-550.442" y="490.502" rx="10.63" ry="10.63" style="fill:#fff;stroke:#000;stroke-width:1;stroke-opacity:1"/><rect id="rect13070" width="197.052" height="286.644" x="-537.854" y="502.586" ry="0" style="fill:none;stroke:#d40000;stroke-width:4.95238304;stroke-linecap:round;stroke-linejoin:miter;stroke-miterlimit:4;stroke-dasharray:none;stroke-opacity:1"/><rect id="rect13072" width="188.277" height="278.906" x="-533.467" y="506.455" style="fill:url(#pattern4529);fill-opacity:1;stroke:#d40000;stroke-width:1;stroke-linecap:round;stroke-linejoin:miter;stroke-miterlimit:4;stroke-dasharray:none;stroke-opacity:1"/></g></g></svg>
