<svg xmlns="http://www.w3.org/2000/svg" width="682.667" height="682.667" preserveAspectRatio="xMidYMid meet" version="1.0" viewBox="0 0 512 512"><metadata>Created by potrace 1.11, written by Peter Selinger 2001-2013</metadata><g fill="#000" stroke="none"><path d="M813 5091 c-22 -16 -50 -45 -62 -64 l-21 -34 0 -2433 0 -2433 21 -34 c12 -19 40 -48 62 -64 l40 -29 1707 0 1707 0 40 29 c22 16 50 45 62 64 l21 34 0 2433 0 2433 -21 34 c-12 19 -40 48 -62 64 l-40 29 -1707 0 -1707 0 -40 -29z" transform="translate(0.000000,512.000000) scale(0.100000,-0.100000)"/></g></svg>